# xmcd
#
# Track frame offsets: 
#        150
#        16725
#        34875
#        53701
#        78511
#        104552
#        130652
#        155253
#        180753
#        204829
#        226880
#
# Disc length: 3202 seconds
#
# Revision: 1
# Processed by: cddbd v1.5.2PL0 Copyright (c) Steve Scherf et al.
# Submitted via: ExactAudioCopy v0.99pb4
#
DISCID=770c800b
DTITLE=Alexandra&George Mraz&John Di Martino&Simone Kopmajer&Tim Horne
DTITLE=r - Romance
DYEAR=2004
DGENRE=Jazz
TTITLE0=How Do You Keep The Music Playing
TTITLE1=A Blossom Fell
TTITLE2=We Kiss In A Shadow
TTITLE3=Calling You
TTITLE4=Whatever Happens
TTITLE5=Exactly Like You
TTITLE6=Someone To Light Up My Life (Se Todos Fossem Iguais A Voce)
TTITLE7=A Time For Love
TTITLE8=Where Or When
TTITLE9=Just Squeeze Me (But Don't Tease Me)
TTITLE10=Whatever Happens (Reprise)
EXTD=YEAR: 2004
EXTT0=
EXTT1=
EXTT2=
EXTT3=
EXTT4=
EXTT5=
EXTT6=
EXTT7=
EXTT8=
EXTT9=
EXTT10=
PLAYORDER=
